<svg width="65" height="46" viewBox="0 0 65 46" fill="none" xmlns="http://www.w3.org/2000/svg">
<path d="M9.41323 0.0809935C3.57054 5.91253 0 13.9309 0 22.8402C0 31.7495 3.48939 40.0108 9.41323 45.8423L15.2559 40.0108C10.8739 35.6371 8.11486 29.5626 8.11486 22.7592C8.11486 16.0367 10.7928 10.2052 15.2559 5.83153L9.41323 0V0.0809935ZM55.5868 0.0809935L49.7441 5.91253C54.1261 10.2862 56.8851 16.1177 56.8851 22.8402C56.8851 29.5626 54.2072 35.6371 49.7441 40.0918L55.5868 45.9233C61.4295 40.0918 65 31.8304 65 22.9212C65 14.0119 61.5106 5.99352 55.5868 0.161987V0.0809935ZM21.0986 11.5011C18.1773 14.4168 16.3109 18.4665 16.3109 22.9212C16.3109 27.3758 18.1773 31.6685 21.0986 34.5842L26.6979 28.7527C25.2372 27.2948 24.4257 25.189 24.4257 22.9212C24.4257 20.6533 25.2372 18.8715 26.6979 17.3326L21.0986 11.5011ZM43.9014 11.5011L38.3021 17.3326C39.7628 18.7905 40.5743 20.6533 40.5743 22.9212C40.5743 25.189 39.7628 27.2948 38.3021 28.7527L43.9014 34.5842C46.8227 31.6685 48.6891 27.3758 48.6891 22.9212C48.6891 18.4665 46.8227 14.4168 43.9014 11.5011Z" fill="black"/>
</svg>
